<?xml version="1.0" encoding="UTF-8"?> <svg xmlns="http://www.w3.org/2000/svg" width="100" height="66" viewBox="0 0 100 66" fill="none"><path d="M37.1496 19.1601C31.8246 19.1606 26.6409 20.8728 22.3633 24.0442C18.0857 27.2156 14.941 31.6781 13.3931 36.7732C20.2161 34.6546 28.7033 36.0751 35.193 38.9979C47.707 44.6331 51.7058 45.3591 61.9542 43.1605C61.7421 36.7234 59.0358 30.6208 54.4072 26.1423C49.7786 21.6638 43.5902 19.16 37.1496 19.1601Z" fill="url(#paint0_linear_2386_10151)"></path><path d="M43.2689 10.7213C26.7821 10.7213 13.0543 22.5353 10.0906 38.1489C10.5318 37.9088 10.9823 37.6854 11.444 37.4825C13.0355 30.9531 16.9016 25.2045 22.3486 21.2681C27.7956 17.3316 34.4671 15.465 41.166 16.0029C47.865 16.5409 54.153 19.4483 58.902 24.2036C63.651 28.9589 66.5502 35.2507 67.0793 41.9504C69.1178 41.4534 71.3816 40.8874 73.9358 40.26C74.8778 40.0292 75.7974 39.843 76.7022 39.7015C74.3789 23.3246 60.2973 10.7213 43.2689 10.7213Z" fill="url(#paint1_linear_2386_10151)"></path><path d="M10.0906 38.149C10.5318 37.9088 10.9823 37.6854 11.444 37.4825C13.0355 30.9531 16.9016 25.2046 22.3486 21.2681C27.7956 17.3317 34.4671 15.465 41.166 16.003C47.865 16.541 54.153 19.4484 58.902 24.2037C63.651 28.9589 66.5502 35.2508 67.0793 41.9505C69.1178 41.4534 71.3816 40.8874 73.9358 40.2601C74.6308 40.09 75.3134 39.9436 75.9836 39.8207C76.0477 39.7986 76.1149 39.7867 76.1828 39.7854C73.8818 23.4382 59.9362 10.7827 43.1106 10.7083C35.2792 10.746 27.7041 13.5033 21.681 18.5087C15.6579 23.5142 11.5608 30.4567 10.0906 38.149Z" fill="url(#paint2_linear_2386_10151)"></path><path d="M42.5894 11.2723C26.8007 11.2723 13.6333 22.7046 10.9302 37.7263C11.0996 37.6444 11.2709 37.5662 11.444 37.4898C13.0356 30.9605 16.9016 25.2119 22.3486 21.2755C27.7956 17.339 34.4671 15.4724 41.166 16.0103C47.865 16.5483 54.1531 19.4557 58.9021 24.211C63.6511 28.9663 66.5502 35.2581 67.0793 41.9578C69.1178 41.4607 71.3816 40.8948 73.9358 40.2674L74.5855 40.1166C72.9212 23.9389 59.2064 11.2723 42.5894 11.2723Z" fill="url(#paint3_linear_2386_10151)"></path><path d="M45.1305 7.39823C63.8251 7.39823 79.2749 21.2824 81.7398 39.2994C86.8667 39.318 91.2342 40.7403 94.6354 43.0711C93.7939 19.633 74.5296 0.889908 50.8867 0.889908C28.2639 0.889908 9.64932 18.0431 7.34833 40.0664C7.73431 39.7301 8.13394 39.4148 8.54723 39.1207C11.0884 21.1893 26.4972 7.39823 45.1305 7.39823Z" fill="#D71921"></path><g style="mix-blend-mode:multiply"><path d="M45.1305 7.39823C63.8251 7.39823 79.2749 21.2824 81.7398 39.2994C86.8667 39.318 91.2342 40.7403 94.6354 43.0711C93.7939 19.633 74.5296 0.889908 50.8867 0.889908C28.2639 0.889908 9.64932 18.0431 7.34833 40.0664C7.73431 39.7301 8.13394 39.4148 8.54723 39.1207C11.0884 21.1893 26.4972 7.39823 45.1305 7.39823Z" fill="#D9D9D9"></path></g><path d="M50.8885 0.889908C28.2639 0.889908 9.64932 18.0431 7.34833 40.0664C7.73431 39.7301 8.13394 39.4148 8.54723 39.1207C11.0884 21.1893 26.4972 7.39823 45.1305 7.39823C63.8251 7.39823 79.2749 21.2824 81.7398 39.2994C86.5931 39.3162 90.7576 40.5933 94.0806 42.7081C93.241 19.8284 74.0102 0.889908 50.8885 0.889908Z" fill="url(#paint4_linear_2386_10151)"></path><path d="M52.4821 1.588C30.1144 0.0614487 9.64932 18.0431 7.34833 40.0664C7.73431 39.73 8.13394 39.4148 8.54723 39.1207C11.0884 21.1893 26.4972 7.3982 45.1305 7.3982C63.8251 7.3982 79.2749 21.2824 81.7398 39.2994C85.4835 39.3124 88.814 40.0776 91.6698 41.3956C90.8469 21.0087 74.0102 3.05684 52.4821 1.588Z" fill="url(#paint5_linear_2386_10151)"></path><path d="M36.7438 46.7535C33.6255 47.3529 33.7297 48.0361 33.7297 48.0063V53.4293V59.368C33.7297 59.368 32.4508 60.189 30.4235 59.5821C29.7049 59.2581 29.3325 58.534 29.3325 57.3704V46.8633C29.3325 46.8782 29.3921 46.167 26.3409 46.7535C23.2207 47.3529 23.325 48.0361 23.325 48.0063C23.325 49.922 23.3343 57.955 23.3343 57.955C23.3343 64.6383 28.1746 65.0088 31.2128 65.0423C32.3838 65.0572 35.7589 65.1298 39.1081 63.391C39.7447 63.0615 39.7392 62.812 39.7392 62.1214C39.7392 61.0155 39.7243 58.9193 39.7243 56.7654L39.7447 53.2785V46.8633C39.7373 46.8782 39.7969 46.167 36.7438 46.7535ZM15.2213 43.4714C15.104 43.2498 14.4766 42.8068 11.498 42.8217C8.30523 42.8365 7.75046 43.2387 7.64993 43.4453C6.7824 45.2157 2.64582 53.8482 0.00228423 64.3721C-0.00346588 64.4112 0.00165345 64.4512 0.017084 64.4877C0.0325146 64.5241 0.0576575 64.5556 0.0897762 64.5787C0.294557 64.7463 0.947999 65.0218 2.99023 65.0963C5.20372 65.1782 6.09918 64.8747 6.4231 64.7426C6.48961 64.7095 6.55208 64.6689 6.60927 64.6215C6.72841 64.1077 7.09144 62.503 7.61084 60.5613C8.48725 60.1886 9.41484 59.9501 10.3624 59.8539C12.0609 59.6546 13.7826 59.8568 15.3888 60.444C15.9212 62.4285 16.3196 64.0444 16.4388 64.588C16.461 64.64 16.5004 64.6828 16.5505 64.709C16.8204 64.8301 17.5464 65.1149 19.7451 65.0572C21.7407 65.0069 22.5543 64.7221 22.7814 64.5508C22.8123 64.532 22.8365 64.5038 22.8502 64.4703C22.8639 64.4368 22.8666 64.3998 22.8577 64.3646C20.2365 53.8798 16.5672 45.9883 15.2213 43.4714ZM9.31424 54.9037C9.91204 53.107 10.6285 51.352 11.4589 49.6502L11.5184 49.5087L11.5799 49.6558C12.4036 51.3443 13.1145 53.0857 13.7077 54.8684C12.2486 54.6782 10.7702 54.6901 9.31424 54.9037ZM62.0715 46.4835C57.1511 46.4835 53.1616 49.6632 53.1616 55.7378C53.1616 61.8123 57.1511 65.0572 62.0715 65.0572C66.9918 65.0572 70.9832 61.8123 70.9832 55.7378C70.9832 49.6632 66.9937 46.4835 62.0715 46.4835ZM62.0919 59.785C60.4853 59.785 59.1822 58.3199 59.1822 55.7564C59.1822 53.1929 60.4853 51.7576 62.0919 51.7576C63.6985 51.7576 64.9943 53.1948 64.9943 55.7564C64.9943 58.318 63.6911 59.785 62.0919 59.785ZM52.039 46.5673C49.9 46.3309 45.6369 46.4332 42.5316 49.2834C42.204 49.585 42.1723 49.6241 42.1723 50.123V57.0633V59.1297C42.1723 60.9336 42.1723 62.2126 42.1723 62.9293C42.1721 63.0465 42.1982 63.1623 42.2486 63.2681C42.4348 63.6535 43.0603 64.4391 45.1863 64.8189C48.2338 65.3662 48.165 64.6327 48.165 64.642V52.8243C48.165 52.4929 49.3062 51.7073 51.4173 52.0796C51.6369 52.1169 51.851 52.1634 52.0186 51.8935C52.6459 50.8658 54.7068 46.8633 52.0335 46.5654L52.039 46.5673ZM82.6557 46.5673C80.5148 46.3309 76.2516 46.4332 73.1483 49.2834C72.8206 49.585 72.789 49.6241 72.789 50.123V59.1297C72.789 60.9336 72.789 62.2126 72.789 62.9293C72.7881 63.0464 72.8136 63.1622 72.8634 63.2681C73.0496 63.6535 73.6751 64.4391 75.8011 64.8189C78.8505 65.3662 78.7798 64.6327 78.7798 64.642V52.8243C78.7798 52.4929 79.9228 51.7073 82.0339 52.0796C82.2517 52.1169 82.4658 52.1634 82.6334 51.8935C83.2607 50.8658 85.3234 46.8633 82.6501 46.5654L82.6557 46.5673ZM99.5651 52.9714C99.5651 48.5686 96.2662 46.4277 91.3999 46.4277C89.303 46.4379 87.2275 46.8506 85.2862 47.6433C85.0163 47.7681 85.1 52.8559 88.842 51.7613C89.6494 51.5232 90.4957 51.446 91.3328 51.5342C92.595 51.6626 93.2299 52.3142 93.4775 52.9341C93.6255 53.3221 93.6628 53.7436 93.5854 54.1516C90.9512 53.6527 88.8568 53.6751 87.2707 54.0809C84.6644 54.7511 83.3147 56.838 83.3017 58.9919C83.3017 60.5148 83.9402 62.4769 85.5357 63.6572C85.6064 63.7093 85.6846 63.7596 85.7684 63.8099C86.4893 64.2402 87.2863 64.5278 88.1159 64.6569C91.8389 65.3964 95.7005 64.9349 99.1443 63.3389C99.4794 63.1844 99.5502 62.9423 99.5483 62.624C99.5483 61.669 99.5483 57.86 99.5483 57.86C99.5651 57.1377 99.5595 52.9695 99.5595 52.9695L99.5651 52.9714ZM93.5724 59.9004C90.3518 60.9969 88.9797 59.9414 88.9797 58.7276C88.9797 56.3279 93.5854 57.6422 93.5854 57.6422L93.5724 59.9004Z" fill="#231F20"></path><path d="M61.405 43.2703C60.7981 30.0973 50.1123 19.1601 37.1496 19.1601C31.8246 19.1606 26.6409 20.8728 22.3633 24.0442C18.0857 27.2156 14.941 31.6781 13.3931 36.7732C20.2161 34.6546 28.7033 36.0751 35.193 38.9979C47.4799 44.5251 51.5588 45.3256 61.405 43.2703Z" fill="url(#paint6_linear_2386_10151)"></path><path d="M36.5744 19.7428C26.2832 19.7428 16.5077 27.061 14.0205 36.5833C20.9216 34.6658 29.2413 36.3115 35.193 38.9923C46.2754 43.9833 50.6801 45.1227 58.6628 43.7916C58.7149 43.1717 58.7429 42.5443 58.7429 41.9113C58.736 36.034 56.3982 30.3994 52.2422 26.2434C48.0863 22.0875 42.4517 19.7497 36.5744 19.7428Z" fill="url(#paint7_linear_2386_10151)"></path><path d="M36.6191 19.7428C26.3279 19.7428 16.5133 27.061 14.0205 36.5833C20.9309 34.6732 29.286 36.3115 35.2433 38.9923C46.3257 43.9833 50.7303 45.1152 58.7131 43.7841C58.7652 43.1642 58.7931 42.5443 58.7931 41.9113C58.7862 36.033 56.4477 30.3975 52.2905 26.2415C48.1334 22.0854 42.4974 19.7482 36.6191 19.7428Z" fill="url(#paint8_linear_2386_10151)"></path><defs><linearGradient id="paint0_linear_2386_10151" x1="24.2987" y1="31.73" x2="58.7764" y2="31.73" gradientUnits="userSpaceOnUse"><stop offset="0.36" stop-color="#FFD300"></stop><stop offset="0.95" stop-color="#FCBA11"></stop><stop offset="1" stop-color="#FCB813"></stop></linearGradient><linearGradient id="paint1_linear_2386_10151" x1="10.0906" y1="26.3442" x2="76.7022" y2="26.3442" gradientUnits="userSpaceOnUse"><stop offset="0.36" stop-color="#F6921E"></stop><stop offset="0.62" stop-color="#F37920"></stop><stop offset="1" stop-color="#EF4E23"></stop></linearGradient><linearGradient id="paint2_linear_2386_10151" x1="45.3111" y1="10.9838" x2="43.3042" y2="36.8477" gradientUnits="userSpaceOnUse"><stop stop-color="#F6921E"></stop><stop offset="0.35" stop-color="#F37920"></stop><stop offset="0.86" stop-color="#EF4E23"></stop></linearGradient><linearGradient id="paint3_linear_2386_10151" x1="53.3758" y1="10.2539" x2="46.3909" y2="28.6098" gradientUnits="userSpaceOnUse"><stop offset="0.09" stop-color="#FFF9C1"></stop><stop offset="0.15" stop-color="#FFF2B3" stop-opacity="0.79"></stop><stop offset="0.24" stop-color="#FFE9A3" stop-opacity="0.56"></stop><stop offset="0.32" stop-color="#FFE295" stop-opacity="0.36"></stop><stop offset="0.4" stop-color="#FFDC8B" stop-opacity="0.2"></stop><stop offset="0.47" stop-color="#FFD883" stop-opacity="0.09"></stop><stop offset="0.53" stop-color="#FFD67F" stop-opacity="0.02"></stop><stop offset="0.58" stop-color="#FFD57D" stop-opacity="0"></stop></linearGradient><linearGradient id="paint4_linear_2386_10151" x1="58.0801" y1="1.50425" x2="52.2066" y2="32.9977" gradientUnits="userSpaceOnUse"><stop stop-color="#D71921"></stop><stop offset="0.17" stop-color="#D71921" stop-opacity="0.89"></stop><stop offset="0.55" stop-color="#D71921" stop-opacity="0.59"></stop><stop offset="0.99" stop-color="#D71921" stop-opacity="0.2"></stop></linearGradient><linearGradient id="paint5_linear_2386_10151" x1="56.9463" y1="0.495212" x2="54.2023" y2="15.2097" gradientUnits="userSpaceOnUse"><stop offset="0.11" stop-color="white" stop-opacity="0.7"></stop><stop offset="0.17" stop-color="white" stop-opacity="0.59"></stop><stop offset="0.31" stop-color="white" stop-opacity="0.34"></stop><stop offset="0.43" stop-color="white" stop-opacity="0.16"></stop><stop offset="0.52" stop-color="white" stop-opacity="0.04"></stop><stop offset="0.58" stop-color="white" stop-opacity="0"></stop></linearGradient><linearGradient id="paint6_linear_2386_10151" x1="41.8168" y1="20.2008" x2="37.4214" y2="39.9175" gradientUnits="userSpaceOnUse"><stop stop-color="#FFD300"></stop><stop offset="0.38" stop-color="#FFCF03"></stop><stop offset="0.78" stop-color="#FDC20C"></stop><stop offset="1" stop-color="#FCB813"></stop></linearGradient><linearGradient id="paint7_linear_2386_10151" x1="44.451" y1="11.9872" x2="40.0277" y2="27.3626" gradientUnits="userSpaceOnUse"><stop offset="0.48" stop-color="#FFFBD4"></stop><stop offset="0.53" stop-color="#FFFBCA" stop-opacity="0.95"></stop><stop offset="0.61" stop-color="#FFF9B0" stop-opacity="0.83"></stop><stop offset="0.72" stop-color="#FFF785" stop-opacity="0.63"></stop><stop offset="0.85" stop-color="#FFF54A" stop-opacity="0.35"></stop><stop offset="1" stop-color="#FFF100" stop-opacity="0"></stop></linearGradient><linearGradient id="paint8_linear_2386_10151" x1="21.8245" y1="21.8018" x2="25.8364" y2="25.1881" gradientUnits="userSpaceOnUse"><stop offset="0.2" stop-color="#FFF698" stop-opacity="0.3"></stop><stop offset="0.34" stop-color="#FFF581" stop-opacity="0.25"></stop><stop offset="0.58" stop-color="#FFF342" stop-opacity="0.13"></stop><stop offset="0.8" stop-color="#FFF100" stop-opacity="0"></stop></linearGradient></defs></svg> 