<?xml version="1.0" encoding="UTF-8"?>
<svg id="Layer_1" xmlns="http://www.w3.org/2000/svg" version="1.1" viewBox="0 0 975.793 494.856">
  <!-- Generator: Adobe Illustrator 29.7.1, SVG Export Plug-In . SVG Version: 2.1.1 Build 8)  -->
  <path d="M970.837,221.721c-1.022-4.565-2.293-8.554-3.528-12.423,0,0-.028-.092-.028-.099-21.126-65.671-63.428-73.011-86.748-71.542-47.356,2.982-96.934,45.844-112.956,95.089-.177-51.431-6.091-85.207-17.605-100.413-4.579-6.048-10.109-9.356-16.441-9.832-26.642-2.009-42.472,25.116-51.041,48.229-4.77,12.87-8.37,27.203-10.939,40.79.809-25.222.738-43.7.667-60.773-.021-4.586-.035-9.058-.035-13.516,0-14.425-10.684-29.034-31.107-29.034-16.973,0-36.346,8.277-40.35,31.419-11.024-5.715-23.362-9.988-35.672-12.295-17.328-3.251-32.974-2.392-45.198,2.456-26.649,10.265-48.797,32.924-61.007,62.321-2.882-42.444-18.365-81.345-45.44-81.345-5.97,0-12.643,2.286-19.295,6.609l-.064.043c-10.542,7.063-11.67,30.049-12.764,70.065-.994,36.545-2.357,86.598-19.593,86.598-7.972,0-13.786-11.848-17.3-35.217-3.649-24.271-4.408-58.374-5.211-94.478l-.043-2.066c-.248-11.024-3.017-20.345-8.015-26.961-5.104-6.751-12.302-10.442-20.352-10.336-20.587.227-50.465,27.309-54.803,99.525-9.732-11.543-22.056-20.934-36.027-26.656.532-2.052,1.143-4.735,1.839-8.263.866-4.352,2.236-12.061,2.236-14.226,0-32.214-15.511-58.033-44.85-74.658-30.681-17.385-66.913-19.976-85.782-19.976-21.595,0-44.666,6.85-61.696,18.322C11.259,92.843,0,112.592,0,134.69v5.175c0,.156,0,.312.021.469l17.903,217.856c0,.05.007.106.014.156,3.258,29.666,5.054,46.007,41.052,46.007,11.337,0,31.81-1.86,41.528-14.311,3.855-4.941,5.573-10.833,5.132-17.577,54.128-3.358,96.657-14.396,126.487-32.839,21.147-13.069,32.953-28.069,39.427-41.855,2.57,4.912,5.431,9.477,8.604,13.63,17.541,22.958,44.29,34.593,79.507,34.593,32.74,0,59.445-16.022,77.235-46.327,6.744-11.486,12.054-24.817,15.823-39.335,1.292,4.841,2.981,9.498,5.09,13.935,11.536,24.065,29.616,40.264,52.297,46.838,25.116,7.283,55.257,2.619,84.085-12.749-4.621,38.561-16.405,95.06-33.23,111.409-10.009,9.732-19.018,12.529-23.171,11.003-2.967-1.093-4.146-4.905-4.593-8.284,5.324-18.741.149-33.144-13.956-38.667-17.868-6.992-46.568,3.202-58.267,27.373-6.346,13.53-5.665,29.503,1.917,44.985,8.831,18.038,25.208,31.689,42.714,35.629,8.959,2.059,18.223,3.052,27.522,3.052,30.553,0,61.369-10.755,82.261-29.78,16.114-14.553,29.467-46.866,39.69-96.04,9.605-46.192,12.984-90.616,13.566-99.078.043-.653.078-1.285.121-1.931l.192,2.336c-2.492,37.106,34.692,80.082,63.492,84.029,1.469.199,2.896.298,4.273.298,12.6,0,21.375-8.306,24.37-23.327,1.413-6.978,3.187-22.383,4.522-41.549,1.817,6.446,4.359,12.671,7.631,18.592,11.507,20.828,31.554,37.964,59.588,50.941.298.135.603.248.916.334,13.637,3.67,26.791,5.502,39.349,5.502,8.533,0,16.796-.852,24.732-2.548,18.776-4.018,34.884-12.551,47.867-25.35,13.339-13.147,22.709-30.525,27.11-50.238,4.536-20.324,3.876-42.302-1.959-65.338l-.028.014.003-.002ZM170.864,246.446c.383,7.61.447,12.075-2.698,15.383-6.183,6.503-25.3,9.676-58.43,9.697l-1.136-31.597c6.247-1.824,24.718-3.088,36.147-3.088h4.252c16.824,0,20.821,2.414,21.637,3.131.014,2.25.121,4.394.227,6.467v.007h.001ZM127.022,161.09c-3.003,5.033-10.549,6.936-20.104,9.335-1.051.263-2.115.532-3.194.809l-5.651-38.454c3.734-2.321,10.499-3.599,17.257-1.966,3.592.866,9.874,3.329,11.621,9.988,2.449,9.619,2.47,16.249.064,20.288h.007ZM536.432,261.297c-8.086-.738-13.005-5.118-15.035-13.395-4.522-18.407,7.248-49.237,22.496-58.913.199-.128.398-.27.582-.419,6.95-5.75,18.5-7.333,28.729-3.94,6.872,2.279,18.918,8.732,23.824,26.493-5.367,16.008-16.228,29.325-33.151,40.676-5.445,3.62-16.022,9.704-25.613,9.541l-1.824-.036-.007-.007h0ZM849.419,239.702c2.811-17.087,10.904-29.744,21.112-33.024,2.534-.816,4.905-1.228,7.12-1.228,6.368,0,11.415,3.407,15.319,10.279,5.274,9.292,7.539,23.689,6.055,38.525-1.469,14.737-6.389,27.082-13.161,33.024-9.931,8.717-21.119.277-24.796-2.499-.014-.007-.028-.021-.043-.028-10.144-7.503-14.808-25.613-11.607-45.049h.001Z"/>
  <path d="M705.873,78.815c7.922,7.347,19.046,12.054,30.532,12.92,1.292.099,2.584.149,3.876.149,19.451,0,38.745-11.138,40.712-37.12.156-2.08.369-4.905.085-7.532-1.335-32.399-19.692-45.567-36.452-47.079-20.175-1.824-44.219,12.657-51.154,43.842-.057.256-.099.518-.121.788l-.135,1.704c-.937,12.416,3.557,23.902,12.657,32.335v-.007h0Z"/>
</svg>