<svg width="61" height="40" viewBox="0 0 61 40" fill="none" xmlns="http://www.w3.org/2000/svg">
<path fill-rule="evenodd" clip-rule="evenodd" d="M3.6357 36.8185C3.91787 36.9179 4.15852 37.0836 4.35771 37.3156C4.55689 37.531 4.65653 37.8541 4.65653 38.285C4.65653 38.6164 4.56521 38.9064 4.38263 39.1549C4.20005 39.4201 3.95107 39.6272 3.6357 39.7763C3.30373 39.9255 2.93859 40 2.54022 40C2.10866 40 1.71855 39.9255 1.36998 39.7763C1.02141 39.6272 0.747588 39.4117 0.548406 39.13C0.332626 38.8649 0.208137 38.5418 0.17494 38.1607H1.36998C1.40318 38.3927 1.51934 38.5832 1.71853 38.7323C1.91771 38.8649 2.17501 38.9312 2.49038 38.9312C2.78915 38.9312 3.02148 38.8732 3.18747 38.7572C3.37005 38.6246 3.46136 38.4672 3.46136 38.285C3.46136 38.1193 3.41154 37.995 3.31195 37.9121C3.21236 37.8293 3.07967 37.7629 2.91369 37.7132C2.7477 37.6635 2.54022 37.6139 2.29125 37.5642C1.89288 37.4979 1.56091 37.4315 1.29534 37.3653C1.02976 37.2824 0.79731 37.1333 0.598128 36.9179C0.398947 36.7025 0.299429 36.4042 0.299429 36.0231C0.299429 35.7082 0.382421 35.4265 0.548406 35.178C0.714391 34.9129 0.955044 34.714 1.27042 34.5815C1.58579 34.4323 1.95093 34.3577 2.36589 34.3577C2.73106 34.3577 3.07967 34.424 3.41164 34.5566C3.72701 34.6892 3.99252 34.888 4.2083 35.1531C4.40748 35.4017 4.53197 35.7 4.58176 36.0479H3.33688C3.30368 35.8657 3.20416 35.7083 3.03818 35.5757C2.85559 35.4431 2.62314 35.3851 2.34097 35.4017C2.09199 35.3851 1.89283 35.4265 1.74345 35.5259C1.57746 35.6419 1.49447 35.7828 1.49447 35.9485C1.49447 36.0977 1.54429 36.2136 1.64388 36.2965C1.74347 36.3794 1.86796 36.4456 2.01735 36.4953C2.16673 36.5284 2.35757 36.5616 2.58994 36.5947C3.02151 36.661 3.37012 36.7356 3.6357 36.8185Z" fill="#DD0A32"/>
<path fill-rule="evenodd" clip-rule="evenodd" d="M9.90985 34.4572H11.1547V39.8757H9.90985V38.9312C9.72726 39.2295 9.50326 39.4698 9.23768 39.652C8.88911 39.8757 8.44093 40 7.96787 40C7.50312 40 7.07151 39.8757 6.67314 39.6272C6.27478 39.362 5.95946 39.014 5.72708 38.5832C5.4947 38.1523 5.37854 37.6801 5.37854 37.1665C5.37854 36.6528 5.4947 36.1805 5.72708 35.7496C5.95946 35.3188 6.27478 34.9791 6.67314 34.7305C7.07151 34.4819 7.49482 34.3577 7.96787 34.3577C8.44923 34.3577 8.87251 34.4738 9.23768 34.7057C9.50326 34.8715 9.72726 35.1117 9.90985 35.4265V34.4572ZM9.90985 37.1665C9.90985 36.8516 9.83518 36.5699 9.68579 36.3214C9.5364 36.0728 9.33725 35.8739 9.08827 35.7247C8.83929 35.5756 8.54055 35.5259 8.24177 35.5259C7.943 35.5259 7.66905 35.5922 7.42008 35.7247C7.1711 35.8739 6.97194 36.081 6.82255 36.3461C6.67317 36.5947 6.5985 36.8433 6.5985 37.1665C6.5985 37.4647 6.67317 37.7381 6.82255 37.9866C6.97194 38.2352 7.1711 38.434 7.42008 38.5832C7.66905 38.7323 7.943 38.807 8.24177 38.807C8.55714 38.807 8.83929 38.7323 9.08827 38.5832C9.33725 38.4506 9.5364 38.2518 9.68579 37.9866C9.83518 37.7381 9.90985 37.4647 9.90985 37.1665ZM16.3335 34.6311C16.6655 34.83 16.9228 35.1116 17.1054 35.4762C17.288 35.8407 17.3792 36.2716 17.3792 36.7687V39.8757H16.1343V36.9428C16.1343 36.5119 16.0181 36.1639 15.7857 35.8988C15.5368 35.6502 15.238 35.5259 14.8397 35.5259C14.4247 35.5259 14.0927 35.6502 13.8438 35.8988C13.6114 36.1639 13.4952 36.5119 13.4952 36.9428V39.8757H12.2503V34.4572H13.4952V35.3023C13.6446 35.0371 13.8354 34.8217 14.0678 34.656C14.3832 34.4406 14.74 34.3329 15.1384 34.3329C15.5865 34.3329 15.985 34.4323 16.3335 34.6311ZM20.2922 32.9906V34.4572H21.7115V35.6253H20.2922V37.8127C20.2922 38.1441 20.3836 38.3844 20.5661 38.5335C20.7487 38.6992 20.9977 38.7821 21.3131 38.7821C21.4625 38.7821 21.5953 38.7655 21.7115 38.7323V39.8757C21.5123 39.9089 21.2881 39.9255 21.0392 39.9255C20.6408 39.9255 20.2922 39.8508 19.9934 39.7017C19.6946 39.536 19.4623 39.2957 19.2963 38.9809C19.1303 38.666 19.0474 38.2849 19.0474 37.8375V35.6253H18.0016V34.4572H19.0474V32.9906H20.2922ZM26.8652 34.4572H28.1101V39.8757H26.8652V38.9064C26.6992 39.2046 26.4752 39.4449 26.193 39.6272C25.8445 39.8509 25.4212 39.9751 24.9482 39.9751C24.4668 39.9751 24.0269 39.8508 23.6285 39.6023C23.2301 39.3537 22.9148 39.0058 22.6824 38.5584C22.4501 38.1276 22.3339 37.6553 22.3339 37.1416C22.3339 36.6445 22.4501 36.1805 22.6824 35.7496C22.9148 35.3022 23.2301 34.9543 23.6285 34.7057C24.0269 34.4572 24.4502 34.3329 24.9482 34.3329C25.4295 34.3329 25.8445 34.4489 26.193 34.6809C26.4752 34.8631 26.6992 35.1034 26.8652 35.4017V34.4572ZM26.8652 37.1665C26.8652 36.8516 26.7905 36.5699 26.6412 36.3214C26.5084 36.0728 26.3092 35.8822 26.0436 35.7496C25.7947 35.6005 25.5207 35.5259 25.2219 35.5259C24.9066 35.5259 24.6244 35.6005 24.3754 35.7496C24.1265 35.8988 23.9273 36.0976 23.7779 36.3461C23.6285 36.5947 23.5788 36.8682 23.5788 37.1665C23.5788 37.4647 23.6451 37.7381 23.7779 37.9866C23.9273 38.2518 24.1265 38.4589 24.3754 38.608C24.6244 38.7323 24.8983 38.807 25.2219 38.807C25.5207 38.807 25.7947 38.7406 26.0436 38.608C26.3092 38.4589 26.5084 38.2601 26.6412 38.0115C26.7905 37.763 26.8652 37.4813 26.8652 37.1665ZM40.3598 34.6311C40.7084 34.7968 40.9739 35.0537 41.1565 35.4017C41.3391 35.7331 41.4304 36.1225 41.4304 36.5699V39.8757H40.1855V36.8433C40.1855 36.429 40.0776 36.1059 39.8619 35.8739C39.6627 35.6419 39.3805 35.5259 39.0154 35.5259C38.7996 35.5259 38.6003 35.5757 38.4177 35.6751C38.2185 35.758 38.0692 35.8987 37.9696 36.0976C37.8534 36.2964 37.7953 36.545 37.7953 36.8433V39.8757H36.5504V36.8433C36.5504 36.429 36.4426 36.1059 36.2268 35.8739C36.0276 35.6419 35.7371 35.5259 35.3554 35.5259C35.1396 35.5259 34.9404 35.5757 34.7578 35.6751C34.5752 35.758 34.4341 35.8987 34.3345 36.0976C34.2183 36.2964 34.1603 36.545 34.1603 36.8433V39.8757H32.9154V34.4572H34.1603V35.2276C34.3429 34.9128 34.5752 34.6892 34.8574 34.5566C35.1562 34.4075 35.4715 34.3329 35.8035 34.3329C36.3844 34.3495 36.8327 34.5234 37.148 34.8548C37.2808 34.9708 37.3887 35.12 37.4717 35.3023C37.5215 35.2194 37.5796 35.1366 37.646 35.0537C37.8286 34.8217 38.0609 34.6477 38.3431 34.5317C38.6087 34.4157 38.8991 34.3577 39.2145 34.3577C39.6461 34.3577 40.0278 34.4488 40.3598 34.6311ZM46.6589 34.4572H47.9038V39.8757H46.6589V38.9312C46.4929 39.2295 46.2689 39.4698 45.9867 39.652C45.6381 39.8757 45.2149 39.9751 44.7418 39.9751C44.2605 39.9751 43.8205 39.8508 43.4222 39.6023C43.0238 39.3537 42.7085 39.014 42.4761 38.5832C42.2603 38.1523 42.1524 37.6801 42.1524 37.1665C42.1524 36.6528 42.2603 36.1805 42.4761 35.7496C42.7085 35.3188 43.0238 34.9791 43.4222 34.7305C43.8205 34.4819 44.2688 34.3577 44.7418 34.3577C45.2232 34.3577 45.6381 34.4655 45.9867 34.6809C46.2689 34.8631 46.4929 35.1034 46.6589 35.4017V34.4572ZM46.6589 37.1665C46.6589 36.8682 46.5842 36.5947 46.4348 36.3461C46.302 36.0976 46.1112 35.8988 45.8622 35.7496C45.6133 35.6005 45.3144 35.5259 45.0156 35.5259C44.7002 35.5259 44.4181 35.6005 44.1691 35.7496C43.9201 35.8988 43.721 36.0976 43.5716 36.3461C43.4471 36.5947 43.3725 36.8682 43.3725 37.1665C43.3725 37.4813 43.4388 37.763 43.5716 38.0115C43.721 38.2601 43.9201 38.4589 44.1691 38.608C44.4181 38.7572 44.6919 38.8317 45.0156 38.8317C45.3144 38.8317 45.5967 38.7572 45.8622 38.608C46.1112 38.4589 46.302 38.2601 46.4348 38.0115C46.5842 37.763 46.6589 37.4813 46.6589 37.1665ZM50.8666 34.5815C51.1155 34.4323 51.3978 34.3577 51.7132 34.3577C51.8792 34.3577 52.0534 34.3826 52.2359 34.4323V35.5508C52.0202 35.5011 51.8377 35.4762 51.6883 35.4762C51.4061 35.4762 51.1571 35.5342 50.9413 35.6502C50.7256 35.7662 50.5596 35.9402 50.4434 36.1722C50.3106 36.4042 50.2441 36.6776 50.2441 36.9924V39.8757H49.0242V34.4572H50.2441V35.2276C50.4101 34.9625 50.6176 34.7472 50.8666 34.5815ZM54.2776 32.1953C54.427 32.3444 54.5017 32.5266 54.5017 32.742C54.5017 32.9575 54.427 33.1481 54.2776 33.3138C54.1116 33.4629 53.9208 33.5375 53.705 33.5375C53.4892 33.5375 53.2983 33.4629 53.1323 33.3138C52.9829 33.1481 52.9082 32.9575 52.9082 32.742C52.9082 32.5266 52.9829 32.3444 53.1323 32.1953C53.2983 32.0296 53.4892 31.9467 53.705 31.9467C53.9208 31.9467 54.1116 32.0296 54.2776 32.1953Z" fill="#DD0A32"/>
<path fill-rule="evenodd" clip-rule="evenodd" d="M53.0826 39.8757H54.3275V34.4572H53.0826V39.8757ZM59.7551 35.4265C59.5891 35.1117 59.365 34.8714 59.0828 34.7057C58.7343 34.4738 58.3193 34.3577 57.8379 34.3577C57.34 34.3577 56.9168 34.4819 56.5184 34.7305C56.12 34.9791 55.8047 35.3188 55.5723 35.7496C55.34 36.1805 55.2237 36.6528 55.2237 37.1664C55.2237 37.6801 55.34 38.1523 55.5723 38.5832C55.8047 39.014 56.12 39.362 56.5184 39.6272C56.9168 39.8757 57.3566 40 57.8379 40C58.311 40 58.7343 39.8757 59.0828 39.652C59.365 39.4698 59.5891 39.2295 59.7551 38.9312V39.8757H61V34.4572H59.7551V35.4265ZM59.5311 38.0364C59.3983 38.285 59.1991 38.4755 58.9335 38.608C58.6846 38.7572 58.4106 38.8317 58.1118 38.8317C57.7882 38.8317 57.5143 38.7572 57.2653 38.608C57.0164 38.4589 56.8172 38.2601 56.6678 38.0115C56.5184 37.763 56.4438 37.4896 56.4438 37.1913C56.4438 36.8931 56.5184 36.6196 56.6678 36.371C56.8172 36.1225 57.0164 35.9236 57.2653 35.7745C57.5143 35.6254 57.7965 35.5508 58.1118 35.5508C58.4106 35.5508 58.6846 35.6253 58.9335 35.7496C59.1991 35.8988 59.3983 36.0976 59.5311 36.3461C59.6804 36.5947 59.7551 36.8765 59.7551 37.1913C59.7551 37.4896 59.6804 37.7713 59.5311 38.0364ZM56.2445 0.106311C53.4809 0.106311 51.7132 1.89598 49.3479 6.86716C45.3145 15.3182 44.5675 17.0083 43.1732 16.9834C41.7541 16.9586 41.0072 15.2436 36.9986 6.86716C34.3346 1.24973 32.4174 0.330014 30.5003 0.106311C28.4836 -0.117392 14.0679 0.0814306 9.76057 0.0814306C4.13369 0.0814306 0.0504167 2.96474 0.000621339 7.19024C-0.123867 18.0523 18.4996 16.8592 18.4996 20.9852C18.4996 22.0541 17.7029 22.576 16.1095 22.576H0.374087V28.7403C18.3751 28.7652 22.8567 29.4363 25.3464 25.7576V28.7651H32.3178V12.5591H32.4672C32.4672 12.5591 35.0815 17.5552 36.8243 20.6373C40.2602 26.6524 46.0863 26.6524 49.5221 20.6373C51.265 17.5552 53.8792 12.5591 53.8792 12.5591H54.0286V28.7651H61V0.106311H56.2445ZM25.3464 17.1575C22.6326 13.5037 12.4246 11.1423 9.08828 9.75034C6.49892 8.65668 7.2458 6.34516 9.90986 6.34516C10.9307 6.34516 21.811 6.34518 25.3464 6.37004V17.1575Z" fill="#DD0A32"/>
</svg>
