<svg id="Agrupar_498" data-name="Agrupar 498" xmlns="http://www.w3.org/2000/svg" width="266" height="72.652" viewBox="0 0 266 72.652">
  <path id="COASUL_1_" d="M178.7,67.929a36.329,36.329,0,0,1-8.37,1.116c-10.211,0-16.628-4.073-16.628-17.912,0-13.727,6.473-17.633,16.628-17.633a35.47,35.47,0,0,1,8.37,1.06v7.533a24.03,24.03,0,0,0-7.812-1.451c-5.915,0-8.761,1.339-8.761,10.658,0,8.928,2.846,10.6,8.761,10.6A22.092,22.092,0,0,0,178.7,60.34v7.589Zm147.034,1.116c-9.263-.056-13.448-3.85-13.448-15.847V34.449h8.2V52.36c0,7.2,1.283,9.151,6.584,9.319h6.863V69.1H325.9l-.167-.056ZM299.9,34.5h8.2V66.2a50.1,50.1,0,0,1-15.9,2.9c-9.43,0-13.671-3.739-13.671-15.847V34.5h8.2V52.416c0,7.477,1.4,9.319,7.142,9.319a21.934,21.934,0,0,0,6.082-.837V34.5ZM272.61,41.758a34.749,34.749,0,0,0-9.765-1.562c-4.018,0-6.082.391-6.082,3.906,0,2.288,1.451,3.125,6.919,3.627,8.147.837,11.662,3.348,11.662,10.1,0,8.7-5.8,11.216-14.4,11.216a45.042,45.042,0,0,1-10.323-1.283V60.786a35.052,35.052,0,0,0,9.988,1.562c4.464,0,6.584-.614,6.584-4.073,0-2.4-1.339-3.515-7.2-4.018-7.366-.614-11.327-2.623-11.327-9.6,0-8.7,5.859-11.16,14.4-11.16a37.761,37.761,0,0,1,9.486,1.339v6.919ZM245.324,66.366a46.149,46.149,0,0,1-15.178,2.623c-10.6,0-14.173-2.455-14.173-11.216,0-9.486,5.357-11.048,13.225-11.048a38.388,38.388,0,0,1,8.314.949c0-5.859-1.4-7.31-8.37-7.31a31.208,31.208,0,0,0-10.156,1.674h0V34.9a54.7,54.7,0,0,1,11.885-1.4c9.988,0,14.508,3.013,14.508,13.057V66.366Zm-7.812-13.113h0a33.634,33.634,0,0,0-6.64-.614c-4.631,0-6.25.5-6.25,4.8,0,4.576,1.283,5.3,6.194,5.3a21.394,21.394,0,0,0,6.752-1.116v-8.37Zm-55.968-2.12c0-13.727,5.357-17.633,15.959-17.633,10.769,0,16.126,3.906,16.126,17.633,0,13.783-5.3,17.912-16.126,17.912-10.658,0-15.959-4.129-15.959-17.912Zm8.482.112h0c0,9.319,1.786,11.16,7.533,11.16,5.859,0,7.645-1.841,7.645-11.16,0-9.653-1.786-11.16-7.645-11.16C191.812,40.084,190.026,41.647,190.026,51.244Z" transform="translate(-67.935 -14.807)" fill="#898a8d"/>
  <path id="Flor_Verde_1_" d="M82.138,91.687a8.5,8.5,0,0,0-.67-2.232,14.773,14.773,0,0,0-1.283-2.176,16.687,16.687,0,0,0-1.9-2.12A27.157,27.157,0,0,0,75.944,83.2c-.837-.614-1.786-1.228-2.734-1.841a32.739,32.739,0,0,0-3.125-1.73c-1.06-.558-2.232-1.06-3.4-1.562-1.116-.446-2.232-.893-3.46-1.339-1.172-.446-2.344-.837-3.571-1.172l-.167-.056a52.556,52.556,0,0,1-7.812,4.073l-.112.056a56.034,56.034,0,0,1-6.808,2.4h0c-.167.056-.391.112-.558.167a77.932,77.932,0,0,1-9.151,1.841c-.837.112-1.618.223-2.4.335s-1.562.167-2.344.223-1.562.112-2.288.167c-.781.056-1.507.056-2.232.112-2.232.056-4.3,0-6.194-.112a38.222,38.222,0,0,1-5.078-.725A13,13,0,0,1,10.881,82.7a3.836,3.836,0,0,1-1.786-1.9c-.335-.949.112-1.953,1.116-3.013a12.231,12.231,0,0,1,2.511-1.9,19.907,19.907,0,0,1-2.12-1.4l-.279.112c-.614.223-1.172.446-1.73.67s-1.116.5-1.618.725c-.5.279-1,.5-1.451.781s-.893.558-1.283.837-.725.558-1.06.837a6.749,6.749,0,0,0-.893.893,6.424,6.424,0,0,0-.781.949c-.223.335-.446.67-.614.949l-.112.279h0a7.452,7.452,0,0,0-.391,1,6.488,6.488,0,0,0-.223,1,3.159,3.159,0,0,0-.167,1,6.065,6.065,0,0,0,.056,1,7.176,7.176,0,0,0,.223,1.06,8.136,8.136,0,0,0,.391,1.06,9.7,9.7,0,0,0,.558,1.06c.223.335.446.725.67,1.06.279.391.558.725.893,1.116s.67.725,1.06,1.116.781.725,1.228,1.116.893.725,1.4,1.116c.558.391,1.116.781,1.73,1.172s1.228.781,1.953,1.172a19.829,19.829,0,0,0,2.176,1.116c.781.391,1.562.725,2.4,1.116.112.056.167.112.279.112.112.056.167.112.279.112a.943.943,0,0,0,.279.112c.112.056.223.056.279.112a.793.793,0,0,0,.335.112.793.793,0,0,0,.335.112.793.793,0,0,0,.335.112.793.793,0,0,0,.335.112.793.793,0,0,0,.335.112.793.793,0,0,0,.335.112c.112.056.223.056.335.112s.223.056.335.112a.793.793,0,0,0,.335.112c.112.056.223.056.335.112s.223.056.335.112.223.056.335.112c.949.335,1.9.614,2.9.949l3.013.837c1,.279,2.065.5,3.125.781,1.06.223,2.12.446,3.236.67l1,.167,1,.167,1,.167,1,.167c1.562.223,3.181.446,4.8.558,1.618.167,3.236.279,4.855.391,1.618.056,3.236.112,4.855.112s3.236-.056,4.8-.112c1.674-.112,3.348-.223,4.966-.446,1.618-.167,3.181-.446,4.687-.725s2.957-.614,4.3-1a30.993,30.993,0,0,0,3.85-1.339,23.175,23.175,0,0,0,3.125-1.507,17.964,17.964,0,0,0,2.511-1.73,11.993,11.993,0,0,0,1.841-1.953,6.72,6.72,0,0,0,1.116-2.176l.223-.949A7.211,7.211,0,0,0,82.138,91.687Z" transform="translate(0 -32.929)" fill="#bbd147"/>
  <path id="Flor_Azul_1_" d="M44.648,32.922s-10.714-7.477-6.975-15.568C40.407,11.383,46.266,7.812,48.163,0c0,0,7.031,4.576,4.687,12.22C50.284,20.814,43.141,25,44.648,32.922Z" transform="translate(-16.301)" fill="#08c"/>
  <path id="Flor_Vermelha_1_" d="M51.9,53.541S90.737,50.7,95.48,13.7C95.48,13.7,54.969,13.7,51.9,53.541Z" transform="translate(-22.94 -6.055)" fill="#cc2128"/>
  <path id="Flor_Amarelo_1_" d="M27.963,64.424s4.408-10.714-5.468-17.075c-4.743-3.013-10.6-4.408-15.345-8.649C7.15,38.644-.551,58.955,27.963,64.424Z" transform="translate(-2.742 -17.105)" fill="#ecb730"/>
</svg>
