<svg xmlns="http://www.w3.org/2000/svg" width="100%" height="100%" viewBox="0 0 152 48" fill="none">
  <path d="M3.09204 31.258L6.39324 36.175C11.5348 36.8693 17.3577 32.3885 21.3764 27.5129L22.2178 26.4933L21.539 23.5019C16.0852 30.1456 10.332 31.0051 4.34903 31.2116L3.09462 31.2554L3.09204 31.258Z" fill="#ffffff"></path>
  <path d="M46.4801 15.4515C46.4801 13.6963 47.7784 12.398 49.6084 12.398C51.4384 12.398 52.7367 13.6963 52.7367 15.4515C52.7367 17.2066 51.4384 18.5049 49.6084 18.5049C47.7784 18.5049 46.4801 17.2427 46.4801 15.4515Z" fill="#041C44"></path>
  <path d="M52.2076 20.9982V33.7771C52.2076 36.6473 49.8794 38.9728 47.0067 38.9728V26.1939C47.0067 23.3238 49.3348 20.9982 52.2076 20.9982Z" fill="#041C44"></path>
  <path d="M26.1204 20.9982C29.3829 20.9982 32.2737 23.1095 33.2597 26.2171L35.9595 34.7218H36.3105L39.0439 26.181C40.0324 23.094 42.9052 20.9982 46.147 20.9982L41.1268 35.4239C40.3886 37.5481 38.3831 38.9728 36.1324 38.9728C33.8817 38.9728 31.8762 37.5481 31.138 35.4239L26.1178 20.9982H26.1204Z" fill="#041C44"></path>
  <path d="M60.7817 20.9982H55.6531L55.6505 21.0008V38.9728C58.5233 38.9728 60.8514 36.6473 60.8514 33.7771V29.7764C60.8514 27.0018 62.3975 25.1073 64.6817 25.1073C65.4199 25.1073 66.615 25.3163 67.6345 25.7732V21.104C67.0718 20.8227 66.3336 20.6472 65.5954 20.6472C63.7009 20.6472 61.9432 21.7725 61.1689 23.4554H60.7817V20.9982Z" fill="#041C44"></path>
  <path d="M72.0637 33.1783V24.7872H69.5316V20.9956H72.2031L72.5025 19.3179C72.918 16.9975 74.939 15.3095 77.2981 15.3095L77.262 20.9956H81.3736V24.7872H77.262V32.9667C77.262 34.4766 78.1783 35.4961 79.6521 35.4961C80.1425 35.4961 80.9168 35.3903 81.513 35.2509V38.9703C80.4935 39.3213 79.0197 39.5329 78.0002 39.5329C74.3815 39.5329 72.0585 36.9699 72.0585 33.1783H72.0637Z" fill="#041C44"></path>
  <path d="M98.6333 38.9677H101.3V26.1888C101.3 23.3186 98.9714 20.9931 96.0987 20.9931V31.1006C96.0987 33.3848 94.4132 35.0342 92.3045 35.0342C90.1957 35.0342 88.931 33.4907 88.931 31.2787V26.1888C88.931 23.3186 86.6029 20.9931 83.7301 20.9931V32.0143C83.7301 36.3324 86.4377 39.4917 90.5132 39.4917C92.6942 39.4917 94.4132 38.4747 95.7502 36.4383H96.1012C96.1012 37.8372 97.2369 38.9677 98.6333 38.9677Z" fill="#041C44"></path>
  <path d="M6.39338 36.1749C0.165234 32.2698 -1.49956 26.7798 1.34221 21.9867L13.099 0.393433C22.7523 7.85792 21.8102 17.9345 17.0429 23.5767L6.39596 36.1749H6.39338Z" fill="#7AA8FF"></path>
  <path fill-rule="evenodd" clip-rule="evenodd" d="M46.4802 15.4515C46.4802 13.6963 47.7785 12.398 49.6085 12.398C51.4385 12.398 52.7368 13.6963 52.7368 15.4515C52.7368 17.2066 51.4385 18.5049 49.6085 18.5049C47.7785 18.5049 46.4802 17.2427 46.4802 15.4515ZM52.2076 20.9982V33.7771C52.2076 36.6473 49.8795 38.9728 47.0068 38.9728V26.1939C47.0068 23.3238 49.3349 20.9982 52.2076 20.9982ZM26.1205 20.9982C29.383 20.9982 32.2738 23.1095 33.2598 26.2171L35.9596 34.7218H36.3106L39.044 26.181C40.0325 23.094 42.9053 20.9982 46.1471 20.9982L41.1269 35.4239C40.3887 37.5481 38.3832 38.9728 36.1325 38.9728C33.8818 38.9728 31.8763 37.5481 31.1381 35.4239L26.1179 20.9982H26.1205ZM60.7818 20.9982H55.6532L55.6506 21.0008V38.9728C58.5234 38.9728 60.8515 36.6473 60.8515 33.7771V29.7764C60.8515 27.0018 62.3976 25.1073 64.6818 25.1073C65.42 25.1073 66.6151 25.3163 67.6346 25.7732V21.104C67.0719 20.8227 66.3337 20.6472 65.5955 20.6472C63.701 20.6472 61.9433 21.7725 61.169 23.4554H60.7818V20.9982ZM72.0638 33.1783V24.7872H69.5317V20.9956H72.2032L72.5026 19.3179C72.9181 16.9975 74.9391 15.3095 77.2982 15.3095L77.2621 20.9956H81.3737V24.7872H77.2621V32.9667C77.2621 34.4766 78.1784 35.4961 79.6522 35.4961C80.1426 35.4961 80.9169 35.3903 81.5131 35.2509V38.9703C80.4936 39.3213 79.0198 39.5329 78.0003 39.5329C74.3816 39.5329 72.0586 36.9699 72.0586 33.1783H72.0638ZM98.6334 38.9677H101.3V26.1888C101.3 23.3186 98.9715 20.9931 96.0988 20.9931V31.1006C96.0988 33.3848 94.4133 35.0342 92.3046 35.0342C90.1958 35.0342 88.9311 33.4907 88.9311 31.2787V26.1888C88.9311 23.3186 86.603 20.9931 83.7302 20.9931V32.0143C83.7302 36.3324 86.4378 39.4917 90.5133 39.4917C92.6943 39.4917 94.4133 38.4747 95.7503 36.4383H96.1013C96.1013 37.8372 97.237 38.9677 98.6334 38.9677Z" fill="#041C44"></path>
  <path d="M13.1066 47.4801C8.32905 44.2744 8.009 39.9821 10.9024 36.4589L21.539 23.5019C26.7605 27.9671 25.6946 32.848 22.0604 36.5957L13.1066 47.4801Z" fill="#00C875"></path>
  <path d="M151.984 18.1203C151.984 15.2501 149.656 12.9246 146.783 12.9246V33.7746C146.783 36.6447 149.111 38.9703 151.984 38.9703V18.1203Z" fill="#00C875"></path>
  <path fill-rule="evenodd" clip-rule="evenodd" d="M104.123 41.2855L109.149 40.3021C109.814 42.2689 111.466 43.4614 113.717 43.4614C116.598 43.4614 118.461 41.5668 118.461 38.6167V36.6163H118.11C116.67 38.2656 114.842 39.2129 112.416 39.2129C107.427 39.2129 103.912 35.5271 103.912 29.9804C103.912 24.4336 107.391 20.4691 112.38 20.4691C114.982 20.4691 116.843 21.5222 118.247 23.2773H118.598V20.9956C121.391 20.9956 123.657 23.2592 123.657 26.0494V38.756C123.657 44.3028 119.86 47.6014 113.851 47.6014C108.614 47.6014 104.996 45.3197 104.118 41.2829L104.123 41.2855ZM118.639 29.9855C118.639 27.0354 116.67 24.8956 113.895 24.8956C111.12 24.8956 109.115 27.0379 109.115 29.9855C109.115 32.9331 111.118 34.9696 113.895 34.9696C116.672 34.9696 118.639 32.8634 118.639 29.9855Z" fill="#00C875"></path>
  <path d="M126.23 20.9982H128.896C130.293 20.9982 131.428 22.1287 131.428 23.5277H131.779C133.116 21.4912 134.835 20.4743 137.016 20.4743C141.092 20.4743 143.799 23.6335 143.799 27.9517V38.9729H138.599V28.6873C138.599 26.4753 137.334 24.9318 135.225 24.9318C133.116 24.9318 131.431 26.5811 131.431 28.8654V38.9729H126.23V20.9982Z" fill="#00C875"></path>
</svg>
